<svg width="40" height="40" viewBox="0 0 40 40" fill="none" xmlns="http://www.w3.org/2000/svg">
<rect width="40" height="40" rx="4" fill="white"/>
<path d="M10.556 6.972H14.336C15.152 6.972 15.68 7.104 15.92 7.368C16.184 7.632 16.316 8.184 16.316 9.024V33H12.536C11.72 33 11.18 32.868 10.916 32.604C10.676 32.34 10.556 31.788 10.556 30.948V6.972ZM20.204 22.236H24.308C25.028 22.236 25.544 22.44 25.856 22.848C26.168 23.232 26.324 23.868 26.324 24.756V33H21.5C21.116 33 20.804 32.868 20.564 32.604C20.324 32.34 20.204 31.992 20.204 31.56V22.236ZM20.312 6.972H24.452C25.148 6.972 25.592 7.104 25.784 7.368C25.976 7.632 26.072 8.184 26.072 9.024V16.656C26.072 18.096 25.808 19.176 25.28 19.896C24.776 20.592 23.744 20.94 22.184 20.94H17.756V17.52H19.34C19.772 17.52 20.036 17.448 20.132 17.304C20.252 17.136 20.312 16.86 20.312 16.476V6.972Z" fill="#00FDE8"/>
<path d="M13.2226 6.972H17.0026C17.8186 6.972 18.3466 7.104 18.5866 7.368C18.8506 7.632 18.9826 8.184 18.9826 9.024V33H15.2026C14.3866 33 13.8466 32.868 13.5826 32.604C13.3426 32.34 13.2226 31.788 13.2226 30.948V6.972ZM22.8706 22.236H26.9746C27.6946 22.236 28.2106 22.44 28.5226 22.848C28.8346 23.232 28.9906 23.868 28.9906 24.756V33H24.1666C23.7826 33 23.4706 32.868 23.2306 32.604C22.9906 32.34 22.8706 31.992 22.8706 31.56V22.236ZM22.9786 6.972H27.1186C27.8146 6.972 28.2586 7.104 28.4506 7.368C28.6426 7.632 28.7386 8.184 28.7386 9.024V16.656C28.7386 18.096 28.4746 19.176 27.9466 19.896C27.4426 20.592 26.4106 20.94 24.8506 20.94H20.4226V17.52H22.0066C22.4386 17.52 22.7026 17.448 22.7986 17.304C22.9186 17.136 22.9786 16.86 22.9786 16.476V6.972Z" fill="#FF3146"/>
<path d="M11.8893 6.972H15.6693C16.4853 6.972 17.0133 7.104 17.2533 7.368C17.5173 7.632 17.6493 8.184 17.6493 9.024V33H13.8693C13.0533 33 12.5133 32.868 12.2493 32.604C12.0093 32.34 11.8893 31.788 11.8893 30.948V6.972ZM21.5373 22.236H25.6413C26.3613 22.236 26.8773 22.44 27.1893 22.848C27.5013 23.232 27.6573 23.868 27.6573 24.756V33H22.8333C22.4493 33 22.1373 32.868 21.8973 32.604C21.6573 32.34 21.5373 31.992 21.5373 31.56V22.236ZM21.6453 6.972H25.7853C26.4813 6.972 26.9253 7.104 27.1173 7.368C27.3093 7.632 27.4053 8.184 27.4053 9.024V16.656C27.4053 18.096 27.1413 19.176 26.6133 19.896C26.1093 20.592 25.0773 20.94 23.5173 20.94H19.0893V17.52H20.6733C21.1053 17.52 21.3693 17.448 21.4653 17.304C21.5853 17.136 21.6453 16.86 21.6453 16.476V6.972Z" fill="black"/>
</svg>
